<svg width="152" height="144" viewBox="0 0 152 144" fill="none" xmlns="http://www.w3.org/2000/svg">
<path d="M37.9703 105.127L70.7068 118.598L75.4642 107.033C102.706 116.163 126.919 113.437 135.702 92.0858C147.046 64.5072 118.565 39.6795 88.1416 27.1593C59.3193 15.2982 35.8593 17.7105 14.2743 25.6794L26.1509 56.9889C42.3265 50.5386 58.4098 49.8757 74.4222 56.4652C84.7413 60.7118 94.1089 67.2714 90.8153 75.2781C87.5217 83.2848 74.8075 82.8377 49.8273 76.3025L37.9703 105.127ZM34.7335 158.511C48.6109 164.222 61.8779 159.279 66.6353 147.714C71.3196 136.326 65.4449 123.299 51.5674 117.588C37.5121 111.803 24.1719 116.924 19.4877 128.311C14.7303 139.876 20.6781 152.727 34.7335 158.511Z" fill="#FFA800"/>
</svg>
