<svg width="6" height="7" viewBox="0 0 6 7" fill="none" xmlns="http://www.w3.org/2000/svg">
<path d="M5.22049 3.894C5.1912 3.92406 5.08062 4.05261 4.9776 4.15835C4.37368 4.82338 2.79822 5.91188 1.97363 6.24413C1.84841 6.29752 1.5318 6.41052 1.36264 6.41777C1.20055 6.41777 1.04604 6.38045 0.898588 6.30478C0.714785 6.19904 0.567339 6.03265 0.486546 5.8362C0.434536 5.69988 0.353743 5.29195 0.353743 5.28469C0.272951 4.83841 0.228515 4.11326 0.228515 3.31191C0.228515 2.5484 0.272951 1.8528 0.3391 1.39977C0.346674 1.39252 0.427466 0.885584 0.515833 0.711942C0.677924 0.394721 0.99453 0.197754 1.33335 0.197754L1.36264 0.197754C1.58331 0.205529 2.04736 0.402496 2.04736 0.409753C2.82751 0.742524 4.36661 1.77764 4.98518 2.46547C4.98518 2.46547 5.15939 2.64222 5.23513 2.75263C5.35329 2.91124 5.41187 3.10769 5.41187 3.30414C5.41187 3.52339 5.34572 3.72762 5.22049 3.894Z" fill="white"/>
</svg>
