<svg width="9" height="8" viewBox="0 0 9 8" fill="none" xmlns="http://www.w3.org/2000/svg">
<path d="M3.65175 7.22309C3.60825 7.18071 3.42225 7.0207 3.26925 6.87165C2.307 5.99781 0.732001 3.71822 0.251251 2.52508C0.174 2.34389 0.0105004 1.88578 5.12209e-07 1.64101C5.32713e-07 1.40648 0.0540005 1.1829 0.1635 0.969557C0.316501 0.703604 0.557251 0.490258 0.8415 0.373356C1.03875 0.298101 1.629 0.181198 1.6395 0.181198C2.28525 0.0642966 3.3345 -1.84566e-08 4.494 8.29101e-08C5.59875 1.7949e-07 6.60525 0.0642965 7.26075 0.16001C7.27125 0.17097 8.00475 0.287872 8.256 0.415734C8.715 0.650269 9 1.10838 9 1.59864L9 1.64101C8.98875 1.9603 8.70375 2.63176 8.69325 2.63176C8.21175 3.76059 6.714 5.98758 5.71875 6.88261C5.71875 6.88261 5.463 7.13468 5.30325 7.24428C5.07375 7.41525 4.7895 7.5 4.50525 7.5C4.188 7.5 3.8925 7.40429 3.65175 7.22309Z" fill="#E8E8E8"/>
</svg>
