<svg width="19" height="19" viewBox="0 0 19 19" fill="none" xmlns="http://www.w3.org/2000/svg">
<path d="M9.58026 6.07415L5.11525 1.60712C4.14559 0.637469 2.57692 0.637469 1.60725 1.60712C0.637589 2.57678 0.637589 4.14544 1.60725 5.11509L6.07227 9.58212L1.60791 14.0439C0.63825 15.0135 0.63825 16.5822 1.60791 17.5518C2.09109 18.0383 2.7265 18.2799 3.36191 18.2799C3.99732 18.2799 4.63274 18.0383 5.11591 17.5518L9.58026 13.0901L14.0441 17.5518C14.5273 18.0383 15.1627 18.2799 15.7981 18.2799C16.4335 18.2799 17.0689 18.0383 17.5521 17.5518C18.5218 16.5822 18.5218 15.0135 17.5521 14.0439L13.0883 9.58212L17.5528 5.11509C18.5224 4.14544 18.5224 2.57678 17.5528 1.60712C16.5831 0.637469 15.0144 0.637469 14.0448 1.60712L9.58026 6.07415Z" fill="white"/>
</svg>
