<svg width="42" height="42" viewBox="0 0 42 42" fill="none" xmlns="http://www.w3.org/2000/svg">
<path d="M21 0C32.5743 0 42 9.42113 42 21.0122C42 32.5789 32.5743 42 21 42C9.42568 42 0 32.5789 0 21.0122C0 9.42113 9.42568 0 21 0ZM18.6081 12.6628C18.1622 12.6628 17.7365 12.7641 17.3311 12.9667C16.8243 13.2504 16.4189 13.6961 16.1959 14.2229C16.0541 14.5876 15.8311 15.6816 15.8311 15.7019C15.6081 16.8972 15.4865 18.8423 15.4865 20.9899C15.4865 23.0382 15.6081 24.9001 15.7905 26.1158C15.8108 26.136 16.0338 27.4935 16.277 27.9595C16.723 28.8104 17.5946 29.3372 18.527 29.3372H18.6081C19.2162 29.3169 20.4932 28.7902 20.4932 28.7699C22.6419 27.8784 26.8784 25.1027 28.5811 23.259L28.7027 23.1375C28.9257 22.9146 29.2095 22.5702 29.2703 22.4891C29.5946 22.0637 29.7568 21.5369 29.7568 21.0122C29.7568 20.4226 29.5743 19.8755 29.2297 19.4298C29.1486 19.3488 28.8446 19.0043 28.5608 18.7207C26.8986 16.9378 22.5608 14.0203 20.2905 13.1288C19.9459 12.989 19.0743 12.6831 18.6081 12.6628Z" fill="white"/>
</svg>
